<?xml version="1.0" standalone="no"?>
<!DOCTYPE svg PUBLIC "-//W3C//DTD SVG 20010904//EN"
 "http://www.w3.org/TR/2001/REC-SVG-20010904/DTD/svg10.dtd">
<svg version="1.0" xmlns="http://www.w3.org/2000/svg"
 width="16.000000pt" height="16.000000pt" viewBox="0 0 16.000000 16.000000"
 preserveAspectRatio="xMidYMid meet">
<metadata>
Created by potrace 1.11, written by Peter Selinger 2001-2013
</metadata>
<g transform="translate(0.000000,16.000000) scale(0.020000,-0.020000)"
fill="#000000" stroke="none">
<path d="M314 763 c-95 -41 -148 -118 -150 -219 -1 -65 18 -115 81 -214 25
-39 29 -58 34 -143 5 -83 9 -101 26 -112 11 -8 27 -21 36 -30 29 -28 81 -30
113 -3 68 56 66 53 66 138 0 78 8 112 41 160 40 61 71 132 76 179 10 95 -47
195 -134 236 -53 25 -140 29 -189 8z"/>
</g>
</svg>
